# xmcd CD database file
#
# Track frame offsets:
#	150
#	15112
#	38174
#	54261
#	78113
#	104943
#	120412
#	142462
#	160987
#	181630
#	203792
#	217592
#	238910
#	264728
#	280871
#
# Disc length: 4133 seconds
#
# Revision: 1
# Processed by: cddbd v1.5.2PL0 Copyright (c) Steve Scherf et al.
# Submitted via: CDex 1.70beta2
#
DISCID=ca10230f
DTITLE=XL Project -yanagizm side- - 東方小曲集 -唯我独尊-
DYEAR=2005
DGENRE=Game
TTITLE0=ルーネイトエルフ
TTITLE1=天空の花の都 〜 Heaven's Race Lead Style
TTITLE2=ネクロサーヴァント　〜Mortal Portal〜
TTITLE3=恋色の歌しか聞こえない
TTITLE4=サクラ ナク
TTITLE5=月花
TTITLE6=ほおずきみたいに紅い魂-情熱style-
TTITLE7=彼岸帰航 〜 Riverside View
TTITLE8=幽霊楽団 〜 Phantom Ensemble
TTITLE9=シンデレラケージ
TTITLE10=妖魔夜行 -MintJam mix-
TTITLE11=時流 〜 Spatiotemporal Stream
TTITLE12=Weekend Clock　〜週末に鳴る終末の時計〜
TTITLE13=東方萃夢想
TTITLE14=鋼の意思　〜Iron Will Maiden〜
EXTD=YEAR: 2005
EXTT0=
EXTT1=
EXTT2=
EXTT3=
EXTT4=
EXTT5=
EXTT6=
EXTT7=
EXTT8=
EXTT9=
EXTT10=
EXTT11=
EXTT12=
EXTT13=
EXTT14=
PLAYORDER=
